<?xml version="1.0" standalone="no"?>
<!DOCTYPE svg PUBLIC "-//W3C//DTD SVG 20010904//EN"
 "http://www.w3.org/TR/2001/REC-SVG-20010904/DTD/svg10.dtd">
<svg version="1.0" xmlns="http://www.w3.org/2000/svg"
 width="800.000000pt" height="800.000000pt" viewBox="0 0 800.000000 800.000000"
 preserveAspectRatio="xMidYMid meet">
<metadata>
Created by potrace 1.11, written by Peter Selinger 2001-2013
</metadata>
<g transform="translate(0.000000,800.000000) scale(0.100000,-0.100000)"
fill="#000000" stroke="none">
<path d="M2995 5343 c-99 -13 -190 -26 -202 -29 l-23 -4 3 -603 c2 -331 1
-588 -3 -572 -4 17 -12 40 -18 52 -7 12 -12 31 -12 42 0 12 -4 21 -10 21 -5 0
-10 11 -10 25 0 14 -4 25 -8 25 -4 0 -16 29 -27 65 -10 37 -22 68 -27 71 -4 3
-8 14 -8 25 0 10 -4 19 -10 19 -5 0 -10 11 -10 24 0 13 -7 37 -15 52 -8 16
-15 37 -15 47 0 9 -4 17 -10 17 -5 0 -10 11 -10 25 0 14 -4 25 -10 25 -5 0
-10 9 -10 20 0 10 -7 36 -16 57 -9 21 -21 49 -27 63 -5 14 -12 32 -16 40 -4 8
-16 43 -26 78 -11 34 -23 62 -27 62 -5 0 -8 14 -8 30 0 17 -4 30 -10 30 -5 0
-10 8 -10 18 0 9 -7 30 -15 46 -8 15 -15 35 -15 42 0 8 -5 14 -11 14 -18 0
-38 32 -39 59 0 23 -1 24 -62 16 -35 -4 -71 -7 -81 -7 -10 1 -21 -6 -24 -14
-3 -9 -14 -12 -31 -9 -14 2 -30 1 -36 -3 -6 -4 -23 -7 -38 -8 -16 -1 -29 -2
-30 -3 -2 -2 -14 -5 -27 -7 -32 -6 -30 -2 -36 -65 -2 -29 -7 -65 -10 -79 -2
-14 -7 -63 -11 -110 -10 -128 -12 -150 -18 -210 -3 -30 -8 -85 -11 -123 -3
-37 -9 -107 -14 -155 -5 -48 -9 -94 -10 -102 0 -8 -2 -37 -5 -65 -3 -27 -8
-79 -11 -115 -4 -36 -8 -66 -10 -68 -1 -2 -10 28 -20 65 -9 37 -21 78 -26 91
-5 13 -9 36 -9 52 0 17 -4 30 -9 30 -5 0 -11 15 -14 33 -2 17 -14 68 -26 111
-11 44 -21 87 -21 98 0 10 -4 18 -10 18 -5 0 -10 16 -10 35 0 19 -4 35 -9 35
-5 0 -11 17 -14 38 -2 20 -12 62 -21 92 -9 30 -19 72 -23 93 -3 20 -10 37 -14
37 -5 0 -9 18 -9 39 0 22 -4 43 -10 46 -5 3 -10 18 -10 32 0 22 -3 25 -30 21
-20 -3 -30 0 -30 9 0 7 -4 13 -10 13 -5 0 -10 12 -10 26 0 26 -2 26 -42 21
-24 -3 -125 -16 -225 -29 l-183 -22 0 -33 c0 -18 5 -33 10 -33 6 0 10 -16 10
-36 0 -21 4 -33 10 -29 6 4 10 -7 10 -24 0 -17 5 -31 10 -31 6 0 10 -13 10
-29 0 -17 5 -33 10 -36 6 -3 10 -21 10 -40 0 -19 5 -37 10 -40 6 -3 10 -15 10
-26 0 -10 4 -27 9 -37 5 -9 24 -64 42 -122 17 -58 36 -110 41 -116 5 -7 8 -16
7 -20 -2 -5 2 -20 8 -34 6 -14 16 -45 23 -70 23 -81 34 -115 42 -125 4 -5 8
-21 8 -36 0 -15 5 -31 10 -34 5 -3 10 -19 10 -36 0 -16 5 -29 10 -29 6 0 10
-15 10 -34 0 -19 5 -38 10 -41 6 -3 10 -17 10 -31 0 -13 5 -24 10 -24 6 0 10
-16 10 -35 0 -19 5 -35 10 -35 6 0 10 -13 10 -30 0 -16 5 -30 10 -30 6 0 10
-11 10 -24 0 -14 5 -28 10 -31 6 -3 10 -20 10 -36 0 -16 6 -32 14 -35 8 -3 12
-13 9 -24 -3 -10 1 -29 9 -41 8 -13 13 -33 13 -44 0 -11 3 -23 8 -26 5 -3 9
-12 10 -20 2 -8 5 -18 9 -24 17 -28 42 -147 40 -193 -1 -40 4 -60 19 -81 l20
-28 -67 -96 c-61 -87 -72 -98 -115 -112 -94 -32 -168 -107 -155 -159 14 -58
80 -109 186 -146 36 -12 72 -25 80 -27 15 -6 43 -12 68 -15 6 -1 12 -5 12 -10
0 -5 4 -7 8 -4 4 3 28 0 53 -5 24 -6 54 -13 67 -15 12 -2 34 -6 50 -9 15 -3
43 -8 62 -11 19 -3 60 -9 90 -14 30 -5 75 -12 100 -14 25 -3 61 -7 80 -10 62
-9 178 -21 305 -30 39 -3 90 -8 115 -10 298 -29 2220 -30 2395 -1 11 2 56 7
100 10 44 3 94 7 110 9 17 2 62 7 100 10 39 4 84 10 100 12 17 2 50 6 75 9 25
3 54 7 66 10 11 2 45 7 75 11 136 17 429 88 490 120 16 8 30 13 31 12 4 -3 53
39 79 66 13 14 19 35 19 66 0 40 -5 51 -32 76 -33 29 -75 52 -134 74 -29 11
-51 36 -132 153 -30 43 -31 47 -12 47 15 0 20 7 20 28 0 42 42 667 45 670 3 3
182 -11 288 -23 38 -5 47 -3 47 10 0 13 10 15 47 13 l48 -3 3 35 c2 19 4 61 5
93 1 31 5 57 9 57 3 0 7 24 8 53 0 28 2 79 3 112 l2 60 -185 14 c-102 8 -186
17 -188 21 -1 4 -14 5 -29 2 l-26 -5 7 64 c3 35 9 97 12 137 l7 74 46 -6 c25
-3 107 -10 181 -16 74 -6 150 -13 168 -16 30 -5 32 -3 32 27 l0 32 50 -7 c47
-6 50 -5 50 16 0 13 7 97 15 188 22 242 30 216 -67 224 -46 4 -143 9 -217 12
-74 2 -239 13 -365 24 -127 11 -248 20 -270 20 l-38 0 6 -35 c7 -35 7 -35 -30
-35 -34 0 -36 -2 -30 -26 6 -24 -29 -510 -41 -564 -5 -22 -7 -20 -19 20 -13
43 -20 59 -60 143 -30 61 -130 158 -204 197 -58 31 -165 50 -285 50 -137 0
-230 -20 -315 -66 -55 -30 -160 -127 -160 -149 0 -7 -8 -23 -19 -36 -10 -13
-36 -77 -57 -141 -21 -65 -42 -118 -46 -118 -8 0 -12 32 -9 58 3 19 -39 141
-50 148 -5 3 -7 9 -4 14 3 5 -6 26 -20 47 -14 21 -31 46 -38 57 -6 10 -18 24
-25 30 -8 6 -28 25 -45 43 -74 73 -206 113 -381 113 -133 0 -217 -16 -306 -58
-68 -32 -144 -103 -167 -154 -9 -21 -20 -38 -25 -38 -4 0 -14 -21 -22 -47 -8
-27 -20 -61 -27 -78 -7 -16 -13 -33 -14 -37 -2 -5 -3 -9 -5 -10 -3 -5 -12 -42
-17 -75 -8 -51 -22 -39 -17 15 2 26 7 121 9 212 7 230 14 426 20 555 2 60 0
123 -5 140 -5 16 -12 42 -15 58 -3 18 -11 27 -23 26 -9 -1 -98 -13 -197 -26z
m905 -894 c55 -23 93 -67 115 -130 19 -53 20 -49 -14 -49 -40 0 -56 -24 -56
-83 0 -39 5 -53 24 -68 27 -22 56 -12 72 24 22 51 -3 -97 -26 -156 -31 -75
-53 -99 -116 -127 -60 -25 -125 -28 -167 -6 -17 9 -37 16 -45 16 -7 0 -28 16
-47 35 -19 19 -30 35 -25 35 5 0 1 6 -9 13 -12 9 -23 39 -32 83 -13 69 -18
133 -7 104 10 -26 35 -50 54 -50 32 0 49 28 49 82 l0 51 25 -23 c22 -21 23
-25 10 -44 -8 -11 -15 -26 -15 -33 0 -7 -11 -23 -25 -37 -13 -13 -27 -36 -31
-51 -9 -37 11 -97 42 -128 24 -24 31 -26 122 -25 117 1 146 13 173 71 28 62
24 92 -16 135 -18 20 -45 51 -59 68 l-25 30 28 11 c23 8 31 20 41 61 20 86 -4
140 -63 140 -61 -1 -84 -117 -36 -181 l21 -29 -22 12 c-12 7 -33 10 -46 7 -21
-4 -24 -1 -17 17 21 65 5 148 -34 165 -35 16 -46 13 -67 -15 -14 -20 -17 -38
-14 -85 2 -32 2 -59 -1 -59 -3 0 -15 7 -25 15 -11 8 -28 13 -38 9 -29 -9 -22
34 15 96 45 77 111 120 184 120 33 0 73 -8 103 -21z m1133 1 c49 -22 87 -63
111 -121 13 -32 13 -35 -7 -50 -22 -16 -22 -16 -19 25 8 91 -74 129 -133 62
l-29 -33 -15 30 c-9 17 -25 32 -36 34 -32 5 -75 -7 -75 -21 0 -7 -9 -24 -21
-37 -11 -13 -23 -36 -26 -51 -3 -16 -9 -28 -13 -28 -5 0 -16 -3 -26 -7 -14 -5
-16 -3 -10 13 5 10 9 28 10 39 1 11 5 26 9 33 5 6 5 17 2 22 -3 6 1 13 9 16 9
3 16 10 16 15 0 15 32 46 65 63 43 23 133 20 188 -4z m-1820 -190 c-7 -28 -13
-25 -13 6 0 14 4 23 9 20 5 -3 7 -15 4 -26z m1742 -39 c3 -5 -3 -12 -13 -15
-27 -9 -102 -86 -118 -121 -16 -35 -74 -104 -75 -90 0 6 -2 25 -4 43 -2 17 0
32 5 32 20 0 90 55 90 71 0 10 10 24 22 30 23 12 41 26 61 46 15 15 24 16 32
4z m-1740 -169 c0 -92 4 -176 9 -187 5 -11 8 -28 7 -37 -1 -10 2 -18 7 -18 5
0 9 -7 10 -15 1 -8 3 -22 4 -30 1 -8 5 -15 9 -15 5 0 11 -17 15 -37 3 -21 14
-52 24 -70 l18 -31 -67 -4 -67 -3 3 115 c1 63 5 174 7 245 2 72 5 158 5 193 1
34 4 62 9 62 4 0 7 -75 7 -168z m1855 149 c0 -5 -3 -17 -6 -25 -5 -13 -9 -14
-20 -5 -11 9 -11 15 -3 25 13 16 29 18 29 5z m-2730 -82 c0 -22 21 -69 31 -69
4 0 5 -9 2 -20 -3 -12 2 -29 11 -39 9 -10 13 -21 9 -25 -5 -4 0 -14 10 -21 10
-7 17 -17 16 -21 -1 -5 3 -22 10 -39 7 -16 15 -42 18 -57 3 -16 9 -28 14 -28
5 0 9 -11 9 -25 0 -14 5 -25 10 -25 6 0 10 -11 10 -24 0 -22 18 -75 42 -123
17 -35 -2 -49 -64 -47 -29 0 -57 -2 -63 -5 -5 -3 -28 -6 -50 -8 -22 -1 -52 -5
-67 -8 -25 -7 -26 -6 -22 32 2 21 6 72 8 113 5 69 8 109 21 230 14 138 18 188
17 212 -1 20 3 26 13 21 8 -3 15 -13 15 -24z m2839 -36 c-1 -16 -4 -39 -8 -52
-6 -22 -7 -21 -24 14 -17 36 -17 38 0 51 27 20 33 17 32 -13z m-758 -368 c11
-33 28 -73 36 -89 l16 -29 -48 6 c-26 4 -68 7 -92 7 l-43 0 16 25 c8 13 13 29
9 35 -3 5 -1 10 4 10 6 0 11 8 11 18 0 10 4 22 8 28 14 15 32 89 33 135 1 43
1 43 15 -21 8 -36 23 -92 35 -125z m684 165 c-10 -11 -22 -20 -26 -20 -4 0
-20 -5 -36 -11 -34 -14 -112 -14 -127 1 -7 7 8 9 49 5 50 -4 67 -1 105 19 57
30 57 30 35 6z m361 -357 c-5 -11 -14 -13 -34 -8 -15 4 -29 8 -31 10 -2 3 10
20 28 40 17 20 32 41 33 48 1 7 3 -8 5 -32 3 -24 2 -50 -1 -58z m-1661 -144
c94 0 238 1 320 3 135 2 483 -8 560 -17 16 -2 66 -6 110 -10 78 -6 325 -32
375 -40 95 -14 145 -22 170 -28 8 -2 32 -7 53 -12 20 -4 39 -11 42 -15 5 -8
-134 -41 -177 -42 -16 0 -28 -3 -28 -7 0 -4 -17 -7 -37 -6 -21 1 -43 -2 -48
-6 -6 -5 -20 -8 -30 -7 -11 0 -65 -4 -120 -10 -55 -6 -143 -14 -195 -17 -52
-4 -115 -8 -140 -10 -57 -5 -245 -15 -380 -21 -146 -6 -923 -6 -1045 0 -261
14 -336 19 -600 42 -193 17 -220 20 -220 24 0 1 -13 4 -30 6 -58 6 -100 12
-125 18 -14 3 -37 8 -52 10 -63 10 -62 23 3 39 35 9 80 18 99 22 19 3 46 8 60
10 14 3 48 8 75 10 28 3 57 7 65 10 8 2 51 7 95 11 44 3 82 8 85 9 3 2 55 6
115 10 61 4 118 9 128 11 10 1 113 6 230 10 116 4 213 8 215 9 2 2 61 1 130
-1 70 -3 204 -5 297 -5z"/>
</g>
</svg>
